<?xml version="1.0" encoding="utf-8"?>
<!-- Generator: Adobe Illustrator 23.0.2, SVG Export Plug-In . SVG Version: 6.00 Build 0)  -->
<svg version="1.1" id="icon" xmlns="http://www.w3.org/2000/svg" xmlns:xlink="http://www.w3.org/1999/xlink" x="0px" y="0px"
	 viewBox="0 0 15 11" style="enable-background:new 0 0 15 11;" xml:space="preserve">
<style type="text/css">
	.st0{fill:none;}
	.st1{fill:#005291;}
</style>
<g>
	<rect x="6" y="4" class="st0" width="3" height="3"/>
	<polygon class="st0" points="9,3 9,1 1,1 1,7 5,7 5,3 	"/>
	<polygon class="st0" points="10,8 6,8 6,10 14,10 14,4 10,4 	"/>
	<path class="st1" d="M10,3V0H0v8h5v3h10V3H10z M1,7V1h8v2H5v4H1z M9,4v3H6V4H9z M14,10H6V8h4V4h4V10z"/>
</g>
</svg>
