<?xml version="1.0" encoding="utf-8"?>
<!-- Generator: Adobe Illustrator 23.0.3, SVG Export Plug-In . SVG Version: 6.00 Build 0)  -->
<svg version="1.1" id="レイヤー_1" focusable="false"
	 xmlns="http://www.w3.org/2000/svg" xmlns:xlink="http://www.w3.org/1999/xlink" x="0px" y="0px" viewBox="0 0 384 450.5"
	 style="enable-background:new 0 0 384 450.5;" xml:space="preserve">
<style type="text/css">
	.st0{fill:#005291;}
</style>
<path class="st0" d="M348.5,234.2l-148,148.5c-4.7,4.7-12.3,4.7-17,0l-148-148.5c-4.7-4.7-4.7-12.3,0-17l7.1-7.1
	c4.7-4.7,12.3-4.7,17,0l115.4,116V14.2c0-6.6,5.4-12,12-12h10c6.6,0,12,5.4,12,12v311.9l115.4-115.9c4.7-4.7,12.3-4.7,17,0l7.1,7.1
	C353.2,221.9,353.2,229.5,348.5,234.2z M384,438.2v-8c0-6.6-5.4-12-12-12H12c-6.6,0-12,5.4-12,12v8c0,6.6,5.4,12,12,12h360
	C378.6,450.2,384,444.8,384,438.2z"/>
</svg>
