<?xml version="1.0" encoding="utf-8"?>
<!-- Generator: Adobe Illustrator 23.0.3, SVG Export Plug-In . SVG Version: 6.00 Build 0)  -->
<svg version="1.1" id="レイヤー_1" xmlns="http://www.w3.org/2000/svg" xmlns:xlink="http://www.w3.org/1999/xlink" x="0px"
	 y="0px" viewBox="0 0 152.6 35" style="enable-background:new 0 0 152.6 35;" xml:space="preserve">
<style type="text/css">
	.st0{fill:#005291;}
</style>
<g>
	<g>
		<path class="st0" d="M8.8,5.6c0,2.5,0,3,0,3c0,0.1,0,0.1-0.1,0.1H8.3c-0.1,0-0.1,0-0.1-0.1V8.1H3.5v0.5c0,0.1,0,0.1-0.1,0.1H3
			c-0.1,0-0.1,0-0.1-0.1s0-0.5,0-3V3.8c0-1.8,0-2.2,0-2.3c0-0.1,0-0.1,0.1-0.1s0.4,0,1.3,0h0.6c0.2-0.3,0.3-0.6,0.4-1
			c0-0.1,0.1-0.3,0.1-0.4C5.6,0,5.8,0.1,6,0.1c0,0.1,0,0.2,0,0.2s0,0.1-0.1,0.1c0,0.1,0,0.2-0.1,0.3C5.7,0.9,5.7,1.2,5.5,1.5h1.9
			c0.9,0,1.3,0,1.3,0c0.1,0,0.1,0,0.1,0.1c0,0,0,0.5,0,2V5.6z M8.2,2.1H3.5v1.4h4.7V2.1z M8.2,4H3.5v1.4h4.7V4z M8.2,5.9H3.5v1.6
			h4.7V5.9z"/>
		<path class="st0" d="M19.4,2.4C19.4,2.5,19.4,2.5,19.4,2.4c-0.1,0.1-0.4,0.1-1.3,0.1h-0.7v0.6H18c0.8,0,1.1,0,1.1,0
			c0.1,0,0.1,0,0.1,0.1c0,0,0,0.2,0,0.8v0.9c0,0.5,0,0.7,0,0.8c0,0.1,0,0.1-0.1,0.1s-0.2,0-1.1,0h-0.5v0.6H18c0.8,0,1.1,0,1.2,0
			s0.1,0,0.1,0.1v0.3c0,0.1,0,0.1-0.1,0.1s-0.3,0-1.2,0h-0.5v0.7c0.6-0.1,1.2-0.2,1.7-0.3c0,0.1-0.1,0.2-0.1,0.3
			c0,0.2,0,0.2-0.2,0.2c-1.1,0.2-2.2,0.4-3.4,0.5c-0.2,0-0.3,0.1-0.4,0.1H15c0,0-0.1,0-0.1-0.1s-0.1-0.4-0.1-0.5c0.3,0,0.6,0,1,0
			c0.3,0,0.7-0.1,1.2-0.1v-1h-0.7c-0.8,0-1.1,0-1.2,0c-0.1,0-0.1,0-0.1-0.1V6.3c0-0.1,0-0.1,0.1-0.1s0.3,0,1.2,0H17V5.7h-0.5
			c-0.8,0-1.1,0-1.1,0c-0.1,0-0.1,0-0.1-0.1s0-0.2,0-0.8V3.9c0-0.5,0-0.7,0-0.8s0-0.1,0.1-0.1s0.3,0,1.1,0H17V2.5h-0.8
			c-0.9,0-1.2,0-1.2,0c-0.1,0-0.1,0-0.1-0.1V2.1C14.9,2,14.9,2,15,2c0,0,0.3,0,1.2,0H17V1.4c-0.5,0.1-0.9,0.1-1.4,0.2
			c-0.2,0-0.2,0-0.2-0.1c-0.1-0.1-0.1-0.2-0.2-0.3c1.4-0.1,2.3-0.2,3.3-0.5c0.2,0,0.3-0.1,0.4-0.2c0.2,0.1,0.3,0.2,0.4,0.3
			s0.1,0.1,0.1,0.1C19.4,1,19.3,1,19.2,1S19,1,18.8,1.1c-0.4,0.1-0.8,0.2-1.2,0.3v0.7h0.7c0.9,0,1.2,0,1.2,0c0.1,0,0.1,0,0.1,0.1
			v0.2H19.4z M17,3.5h-1.1v0.7H17V3.5z M17,4.5h-1.1v0.7H17V4.5z M18.7,3.5h-1.2v0.7h1.2V3.5z M18.7,4.5h-1.2v0.7h1.2V4.5z
			 M21.9,2.5c0.7,0,1,0,1,0c0.1,0,0.1,0,0.1,0.1c0,0.3,0,0.6,0,0.8c0,1.5-0.1,3.1-0.3,4.2c-0.1,0.7-0.4,0.9-1,0.9
			c-0.3,0-0.5,0-0.7,0s-0.2-0.1-0.2-0.2c0-0.2-0.1-0.3-0.1-0.5c0.3,0.1,0.6,0.1,0.9,0.1s0.5-0.2,0.5-0.7c0.2-1,0.2-2.6,0.2-4.4h-1.1
			c0,1-0.1,1.9-0.3,2.7c-0.3,1.2-0.8,2.1-1.8,2.9c0,0.2-0.1,0.3-0.1,0.3s-0.1,0-0.1-0.1c-0.1-0.1-0.2-0.2-0.4-0.3
			c1.1-0.7,1.6-1.6,1.9-2.9c0.2-0.6,0.3-1.5,0.3-2.5h-0.1c-0.7,0-1,0-1,0c-0.1,0-0.1,0-0.1-0.1V2.5c0-0.1,0-0.1,0.1-0.1
			c0,0,0.3,0,1,0h0.1c0-0.4,0-0.7,0-1.1c0-0.6,0-0.8-0.1-1.2c0.2,0,0.4,0,0.6,0.1c0.1,0,0.1,0,0.1,0.1s0,0.1,0,0.2s-0.1,0.4-0.1,0.9
			c0,0.3,0,0.7,0,1L21.9,2.5L21.9,2.5z"/>
		<path class="st0" d="M29.7,4.8c0-0.4,0-1,0-1.4c-0.4,0.5-0.8,1-1.3,1.5C28.3,5,28.3,5,28.3,5s-0.1,0-0.1-0.1
			C28.1,4.7,28,4.6,28,4.5c1.1-1,1.9-2.2,2.4-3.5c0.1-0.2,0.2-0.5,0.2-0.6c0.2,0.1,0.4,0.1,0.6,0.2c0.1,0,0.1,0.1,0.1,0.1
			s0,0.1-0.1,0.1S31.1,0.9,31,1.2c-0.2,0.4-0.4,0.9-0.7,1.3v4.7c0,1,0,1.4,0,1.5s0,0.1-0.1,0.1h-0.5c-0.1,0-0.1,0-0.1-0.1
			c0,0,0-0.5,0-1.5V4.8H29.7z M32.8,7.1c0,0.5,0.1,0.6,0.4,0.7c0.2,0.1,0.6,0.1,1.2,0.1c0.6,0,0.9-0.1,1.2-0.3
			c0.2-0.2,0.3-0.5,0.4-1.4c0.1,0.1,0.3,0.2,0.4,0.2c0.2,0.1,0.2,0.1,0.1,0.2C36.4,7.4,36.3,7.8,36,8c-0.3,0.2-0.9,0.3-1.6,0.3
			c-0.8,0-1.2,0-1.6-0.1c-0.3-0.1-0.6-0.4-0.6-1V1.5c0-0.5,0-0.8-0.1-1.1c0.2,0,0.4,0,0.6,0.1c0.1,0,0.1,0,0.1,0.1s0,0.1,0,0.2
			S32.7,1,32.7,1.5v2.8c0.8-0.5,1.5-1.1,2.2-1.8C35,2.4,35.2,2.2,35.3,2c0.2,0.1,0.4,0.3,0.5,0.4c0.2,0,0.2,0,0.2,0
			c0,0.1-0.1,0.1-0.1,0.1c-0.1,0-0.3,0.2-0.5,0.4c-0.7,0.7-1.5,1.3-2.6,1.9C32.8,4.8,32.8,7.1,32.8,7.1z"/>
		<path class="st0" d="M43.2,4.5c0.4-0.2,0.7-0.3,1.1-0.5c0,0.1,0,0.2,0,0.4c0,0.2,0,0.2-0.2,0.3c-0.3,0.1-0.6,0.3-0.9,0.4v1.2
			c0,0.5,0,1.1,0,1.4c0,0.4-0.1,0.6-0.2,0.7c-0.2,0.1-0.4,0.2-1,0.2c-0.2,0-0.2,0-0.2-0.2S41.7,8.1,41.6,8c0.2,0,0.5,0,0.7,0
			c0.3,0,0.4-0.1,0.4-0.5V5.3c-0.2,0.1-0.4,0.2-0.7,0.2c-0.2,0.1-0.3,0.1-0.4,0.2l-0.1,0.1c0,0-0.1,0-0.1-0.1
			c-0.1-0.2-0.1-0.4-0.2-0.6c0.3,0,0.5-0.1,0.8-0.2l0.6-0.2v-2h-0.3c-0.7,0-0.9,0-0.9,0c-0.1,0-0.1,0-0.1-0.1V2.2
			c0-0.1,0-0.1,0.1-0.1c0,0,0.2,0,0.9,0h0.3V1.4c0-0.6,0-0.8-0.1-1.1c0.2,0,0.4,0,0.6,0.1c0.1,0,0.1,0,0.1,0.1s0,0.1-0.1,0.2
			c0,0.1,0,0.3,0,0.8v0.8l0,0c0.7,0,0.9,0,0.9,0c0.1,0,0.1,0,0.1,0.1v0.4c0,0.1,0,0.1-0.1,0.1c0,0-0.2,0-0.9,0l0,0v1.6H43.2z
			 M48.5,3.7c0.1,0,0.1,0,0.2,0h0.1c0,0,0.1,0,0.2,0.2c0.1,0.1,0.2,0.2,0.2,0.2s0,0.1-0.1,0.1S49,4.3,48.9,4.5
			c-0.4,0.9-0.9,1.7-1.5,2.3c0.7,0.6,1.5,1,2.5,1.4c-0.1,0.1-0.2,0.2-0.3,0.4c-0.1,0.1-0.1,0.2-0.1,0.2h-0.1
			c-0.9-0.4-1.7-0.9-2.4-1.5c-0.7,0.6-1.6,1.1-2.6,1.5c-0.1,0-0.1,0-0.1,0c-0.1,0-0.1,0-0.1-0.2C44,8.5,44,8.4,43.8,8.3
			c1.1-0.3,2-0.8,2.8-1.5c-0.6-0.7-1-1.5-1.4-2.5c-0.3,0-0.5,0-0.5,0c-0.1,0-0.1,0-0.1-0.1V3.8c0-0.1,0-0.1,0.1-0.1c0,0,0.3,0,1.2,0
			h0.8V2.3h-0.8c-0.9,0-1.2,0-1.3,0s-0.1,0-0.1-0.1V1.8c0-0.1,0-0.1,0.1-0.1s0.4,0,1.3,0h0.8V1.4c0-0.6,0-0.9-0.1-1.2
			c0.2,0,0.4,0,0.6,0.1c0.1,0,0.1,0,0.1,0.1s0,0.1-0.1,0.2c0,0.1-0.1,0.4-0.1,0.8v0.4h1.1c0.9,0,1.2,0,1.3,0s0.1,0,0.1,0.1v0.4
			c0,0.1,0,0.1-0.1,0.1s-0.4,0-1.3,0h-1.1v1.5h1.4V3.7z M45.8,4.2c0.3,0.9,0.7,1.6,1.2,2.2c0.6-0.6,1.1-1.3,1.4-2.1h-2.6V4.2z"/>
		<path class="st0" d="M55.6,5.7c0-0.4,0-0.8,0-1.2c-0.2,0.3-0.5,0.5-0.7,0.8l-0.1,0.1c0,0-0.1,0-0.1-0.1c-0.1-0.2-0.1-0.2-0.2-0.3
			c0.8-0.7,1.3-1.4,1.7-2.2c0.1-0.1,0.1-0.3,0.2-0.5c0.2,0.1,0.3,0.2,0.5,0.3C57,2.6,57,2.7,57,2.7s0,0.1-0.1,0.1s-0.1,0.1-0.2,0.3
			c-0.1,0.3-0.3,0.5-0.5,0.8v3.5c0,0.8,0,1.2,0,1.2c0,0.1,0,0.1-0.1,0.1h-0.4c-0.1,0-0.1,0-0.1-0.1c0,0,0-0.4,0-1.2
			C55.6,7.4,55.6,5.7,55.6,5.7z M56.9,0.8c-0.1,0-0.2,0.1-0.2,0.2c-0.4,0.6-0.9,1.2-1.7,1.8c-0.1,0-0.1,0.1-0.1,0.1s-0.1,0-0.1-0.1
			c-0.1-0.1-0.2-0.2-0.2-0.3c0.7-0.5,1.3-1.1,1.7-1.7c0.1-0.2,0.2-0.3,0.2-0.4c0.2,0.1,0.4,0.2,0.5,0.3c0.1,0,0.1,0.1,0.1,0.1
			C56.9,0.7,56.9,0.7,56.9,0.8z M57.9,4.3c0,0.1-0.1,0.2-0.1,0.4c-0.1,0.7-0.3,1.6-0.6,2.4c0,0.1,0,0.1-0.1,0.1H57
			c-0.1-0.1-0.2-0.1-0.4-0.1c0.4-1,0.6-1.8,0.6-2.4c0-0.2,0-0.5,0-0.7c0.2,0,0.4,0,0.5,0.1c0.1,0,0.1,0,0.1,0.1
			C57.9,4.2,57.9,4.3,57.9,4.3z M60.4,2.8C60.4,2.9,60.3,2.9,60.4,2.8c-0.1,0.1-0.3,0.1-1.1,0.1H59V7c0,1.1,0,1.6,0,1.6
			c0,0.1,0,0.1-0.1,0.1h-0.4c-0.1,0-0.1,0-0.1-0.1s0-0.5,0-1.6V2.9h-0.3c-0.7,0-0.9,0-1,0S57,2.9,57,2.8V2.4c0-0.1,0-0.1,0.1-0.1
			s0.3,0,1,0h0.3V1.5c0-0.6,0-0.9-0.1-1.2c0.2,0,0.4,0,0.6,0.1c0.1,0,0.1,0,0.1,0.1s0,0.1,0,0.2c0,0,0,0.2,0,0.8v0.8h0.3
			c0.7,0,0.9,0,1,0s0.1,0,0.1,0.1C60.4,2.4,60.4,2.8,60.4,2.8z M59.6,0.7C59.7,0.7,59.7,0.7,59.6,0.7c0.3,0.3,0.5,0.6,0.7,0.9
			c0,0.1,0,0.1-0.1,0.1L60,1.8c0,0.1,0,0.1,0,0c-0.2-0.4-0.4-0.7-0.6-0.9c0-0.1,0-0.1,0-0.1L59.6,0.7z M59.9,4C60,4,60,4,59.9,4
			c0.4,0.8,0.6,1.6,0.7,2.5c0,0.1,0,0.1-0.1,0.1l-0.3,0.1c-0.1,0-0.2,0-0.2,0c-0.1-0.9-0.3-1.7-0.5-2.5c0-0.1,0-0.1,0.1-0.1L59.9,4z
			 M63.1,3.4C63.1,3.4,63.1,3.5,63.1,3.4c-0.1,0.1-0.3,0.1-0.9,0.1l0,0v2.8c0,0.7,0,1.1,0,1.5c0,0.3-0.1,0.6-0.3,0.7
			c-0.2,0.1-0.5,0.2-1.1,0.1c-0.2,0-0.2,0-0.2-0.2c0-0.1-0.1-0.3-0.2-0.4c0.3,0,0.6,0.1,0.9,0.1c0.2,0,0.4-0.1,0.4-0.4V3.4h-0.3
			c-0.6,0-0.8,0-0.8,0c-0.1,0-0.1,0-0.1-0.1V3c0-0.1,0-0.1,0.1-0.1c0,0,0.2,0,0.8,0h0.9c0.6,0,0.8,0,0.8,0c0.1,0,0.1,0,0.1,0.1v0.4
			H63.1z M62.9,1.4C62.9,1.5,62.9,1.5,62.9,1.4c-0.1,0.1-0.3,0.1-0.8,0.1h-0.6c-0.5,0-0.7,0-0.7,0c-0.1,0-0.1,0-0.1-0.1V1
			c0-0.1,0-0.1,0.1-0.1c0,0,0.2,0,0.7,0h0.6c0.5,0,0.7,0,0.7,0c0.1,0,0.1,0,0.1,0.1V1.4z"/>
		<path class="st0" d="M73,2.2c-1.4,0.2-2.7,0.4-3.8,0.7C68.9,3,68.7,3,68.6,3.1c-0.1,0-0.1,0-0.2,0s-0.1,0-0.1-0.1
			c-0.1-0.2-0.2-0.4-0.3-0.7c0.3,0,0.6,0,1.2-0.1c1.4-0.2,3.3-0.5,5.9-0.8c0.1,0,0.1,0,0.2,0.1c0,0.1,0.1,0.4,0.1,0.5
			c0,0.1,0,0.1-0.1,0.1c-0.5,0-0.9,0.1-1.4,0.3c-1.4,0.5-2.4,1.7-2.4,3c0,1.6,1.4,2,2.8,2.2c0.1,0,0.2,0,0.2,0.1s0,0.3-0.1,0.5
			c0,0.1,0,0.1-0.2,0.1c-1.6-0.1-3.3-0.8-3.3-2.7C70.7,4.1,71.5,3,73,2.2L73,2.2z M74.2,3.5L74.2,3.5c0.5,0.3,0.9,0.7,1.2,1.2v0.1
			L75,5h-0.1c-0.3-0.5-0.7-0.9-1.1-1.2L74.2,3.5z M75,2.9L75,2.9c0.5,0.3,0.9,0.7,1.2,1.1v0.1l-0.3,0.2h-0.1
			c-0.2-0.4-0.6-0.9-1.1-1.2L75,2.9z"/>
		<path class="st0" d="M89.3,3.3C89.3,3.3,89.3,3.4,89.3,3.3c-0.1,0.1-0.4,0-1.3,0h-0.3v1.3c0,1.1,0,1.5,0,1.6s0,0.1-0.1,0.1h-0.4
			c-0.1,0-0.1,0-0.1-0.1V5.8h-1.9v0.4c0,0.1,0,0.1-0.1,0.1h-0.4c-0.1,0-0.1,0-0.1-0.1s0-0.5,0-1.6V3.3h-1.8v4.2h4.6c1,0,1.3,0,1.3,0
			c0.1,0,0.1,0,0.1,0.1v0.5c0,0.1,0,0.1-0.1,0.1s-0.4,0-1.3,0h-4.6v0.5c0,0.1,0,0.1-0.1,0.1h-0.5c-0.1,0-0.1,0-0.1-0.1s0-0.4,0-1.3
			V3.3H82c-0.9,0-1.2,0-1.2,0c-0.1,0-0.1,0-0.1-0.1V2.9c0-0.1,0-0.1,0.1-0.1c0,0,0.3,0,1.2,0h0.2V1.9c0-0.6,0-0.9-0.1-1.3
			c0.2,0,0.5,0,0.6,0.1c0.1,0,0.1,0,0.1,0.1c0,0,0,0.1,0,0.2s0,0.4,0,0.9v0.9h1.8V1.7c0-0.5,0-0.8-0.1-1.1c0.2,0,0.4,0,0.6,0.1
			c0.1,0,0.1,0,0.1,0.1s0,0.1-0.1,0.2c0,0.1,0,0.4,0,0.8v1.1H87v-1c0-0.5,0-0.9-0.1-1.2c0.2,0,0.4,0,0.6,0.1c0.1,0,0.1,0,0.1,0.1
			s0,0.1-0.1,0.2c0,0.1,0,0.4,0,0.8v1H88c0.9,0,1.1,0,1.2,0s0.1,0,0.1,0.1C89.3,3,89.3,3.3,89.3,3.3z M87.1,3.3h-1.9v1.9h1.9V3.3z"
			/>
		<path class="st0" d="M99.4,4.2c0.7,0.9,1.7,1.4,3.2,1.8c-0.1,0.1-0.2,0.2-0.3,0.4c-0.1,0.2-0.1,0.2-0.3,0.1
			c-1.3-0.5-2.5-1.2-3.3-2.3h-1.2c-0.7,1.1-1.8,1.9-3.2,2.4c-0.2,0.1-0.2,0.1-0.3-0.1c0.1-0.2,0-0.3-0.1-0.4c1.3-0.4,2.4-1,3-1.9
			h-0.4c-1,0-1.3,0-1.4,0S95,4.2,95,4.1s0-0.3,0-0.9V1.7c0-0.6,0-0.9,0-0.9c0-0.1,0-0.1,0.1-0.1s0.4,0,1.4,0h3.5c1,0,1.3,0,1.4,0
			s0.1,0,0.1,0.1c0,0,0,0.3,0,0.9v1.5c0,0.6,0,0.9,0,0.9c0,0.1,0,0.1-0.1,0.1s-0.4,0-1.4,0H99.4z M97.5,5.7c0,0.1,0,0.3-0.1,0.4
			c-0.1,1.2-0.6,2-2.1,2.6c-0.2,0.1-0.2,0.1-0.3-0.1c-0.1-0.1-0.2-0.2-0.3-0.3c1.5-0.4,2-1.1,2.1-2.1c0-0.3,0-0.6,0-0.8
			c0.2,0,0.4,0,0.6,0.1c0.1,0,0.2,0,0.2,0.1C97.5,5.6,97.5,5.7,97.5,5.7z M98,1.2h-2.3v1H98V1.2z M98,2.7h-2.3v1H98V2.7z M100.9,1.2
			h-2.3v1h2.3V1.2z M100.9,2.7h-2.3v1h2.3V2.7z M99.2,6.6c0-0.6,0-0.9-0.1-1.2c0.2,0,0.4,0,0.6,0c0.1,0,0.1,0,0.1,0.1
			c0,0,0,0.1,0,0.2s0,0.3,0,0.9v0.9c0,0.8,0,1.1,0,1.2s0,0.1-0.1,0.1h-0.4c-0.1,0-0.1,0-0.1-0.1c0,0,0-0.4,0-1.2V6.6z"/>
		<path class="st0" d="M112,6.7C112,6.8,112,6.8,112,6.7c-0.2,0.1-0.4,0.1-0.5,0.1s-0.1,0-0.1-0.1c0-0.4,0-0.9,0-1.4
			c-1,0.5-1.6,1-1.6,1.6s0.5,0.8,1.6,0.8c0.8,0,1.6-0.1,2.3-0.2c0,0,0.1,0,0.1,0.1s0.1,0.3,0.1,0.5c0,0.1,0,0.1-0.1,0.1
			c-0.7,0.1-1.4,0.1-2.3,0.1c-1.3,0-2.2-0.3-2.2-1.4c0-0.8,0.5-1.4,2.1-2.2c0-0.6-0.2-0.9-0.8-0.9c-0.4,0-0.9,0.2-1.6,0.8
			c-0.3,0.3-0.6,0.6-0.9,0.9c-0.1,0.1-0.1,0.1-0.1,0c-0.1-0.1-0.3-0.3-0.3-0.4s0-0.1,0-0.1c0.9-0.7,1.6-1.7,2.2-2.6
			c-0.6,0-1.2,0-1.8,0c-0.1,0-0.1,0-0.1-0.1s0-0.3-0.1-0.5c0.7,0,1.4,0,2.2,0c0.1-0.3,0.2-0.6,0.3-0.9c0-0.2,0.1-0.3,0.1-0.5
			c0.3,0,0.5,0.1,0.7,0.2c0.1,0,0.1,0.1,0,0.2c0,0-0.1,0.1-0.2,0.3s-0.2,0.4-0.3,0.7c0.7-0.1,1.3-0.2,2-0.3c0.1,0,0.1,0,0.1,0
			c0,0.1,0,0.3,0.1,0.4c0,0.1,0,0.1-0.1,0.1c-0.7,0.1-1.6,0.2-2.3,0.3c-0.3,0.6-0.6,1-1,1.4l0,0c0.4-0.3,0.8-0.4,1.2-0.4
			c0.7,0,1.1,0.4,1.2,1.1c0.5-0.2,1-0.5,1.5-0.7c0.3-0.1,0.5-0.3,0.7-0.5c0.2,0.2,0.4,0.4,0.5,0.5s0,0.2-0.1,0.2S114.2,4,114,4.1
			c-0.7,0.3-1.3,0.5-2,0.8L112,6.7L112,6.7z"/>
		<path class="st0" d="M122,2.8c-0.1,0.1-0.1,0.1-0.2,0.3c-0.3,0.5-0.7,0.9-1.3,1.3c-0.1,0.1-0.1,0.1-0.2,0.1s-0.1,0-0.2-0.1
			s-0.2-0.2-0.3-0.2c0.7-0.4,1.1-0.8,1.4-1.3c0.1-0.2,0.2-0.3,0.2-0.5c0.2,0.1,0.4,0.2,0.5,0.2L122,2.8C122.1,2.8,122,2.8,122,2.8z
			 M125.5,5.3c0.1,0,0.2,0,0.2,0h0.1c0.1,0,0.1,0,0.3,0.2c0.1,0.2,0.2,0.2,0.2,0.2c0,0.1,0,0.1-0.1,0.1S126.1,5.9,126,6
			c-0.4,0.5-0.9,0.8-1.3,1.2c1.1,0.6,2.4,0.8,3.8,0.9c-0.1,0.1-0.2,0.3-0.2,0.4c-0.1,0.2-0.1,0.2-0.3,0.2c-1.4-0.2-2.7-0.6-3.8-1.2
			c-1,0.6-2.2,1-3.6,1.2c-0.2,0-0.2,0-0.3-0.2c-0.1-0.1-0.1-0.2-0.2-0.3c1.4-0.2,2.5-0.5,3.6-1.1c-0.4-0.3-0.8-0.7-1.2-1.1
			c-0.5,0.4-1.1,0.8-1.7,1.2c-0.1,0-0.1,0.1-0.1,0.1s-0.1,0-0.1-0.1c-0.1-0.1-0.2-0.2-0.3-0.3c1.4-0.6,2.3-1.4,2.9-2.3
			c0.1-0.1,0.1-0.2,0.2-0.3c0.2,0,0.4,0.1,0.5,0.2c0.1,0,0.1,0.1,0.1,0.1c0,0.1,0,0.1-0.1,0.1s-0.1,0.1-0.2,0.2s-0.2,0.3-0.3,0.4
			C123.4,5.3,125.5,5.3,125.5,5.3z M128.1,1.8C128.1,1.9,128,1.9,128.1,1.8c-0.1,0.1-0.4,0.1-1.3,0.1h-1.4V3c0,0.5,0,0.8,0,0.9
			c0,0.3-0.1,0.5-0.3,0.6c-0.2,0.1-0.3,0.1-0.8,0.1c-0.2,0-0.2,0-0.2-0.2c0-0.1-0.1-0.3-0.2-0.4c0.2,0,0.4,0,0.5,0
			c0.3,0,0.4-0.1,0.4-0.4V1.8h-1.3c0,1.6-0.5,2.4-1.7,3c-0.1,0-0.1,0.1-0.2,0.1c0,0-0.1,0-0.1-0.1c-0.1-0.1-0.2-0.2-0.3-0.2
			c1.2-0.5,1.7-1.1,1.8-2.7h-1.6c-0.9,0-1.2,0-1.3,0c-0.1,0-0.1,0-0.1-0.1V1.4c0-0.1,0-0.1,0.1-0.1s0.4,0,1.3,0h2.4V1.1
			c0-0.5,0-0.7-0.1-1c0.2,0,0.4,0,0.6,0c0.1,0,0.1,0,0.1,0.1s0,0.1-0.1,0.2c0,0.1,0,0.2,0,0.7v0.2h2.5c0.9,0,1.2,0,1.3,0
			c0.1,0,0.1,0,0.1,0.1v0.4H128.1z M122.7,5.7L122.7,5.7c0.4,0.5,0.8,0.9,1.3,1.2c0.5-0.3,0.9-0.7,1.4-1.2
			C125.4,5.7,122.7,5.7,122.7,5.7z M126.3,2.4c0.1-0.1,0.1-0.1,0.2,0c0.6,0.5,1,1.1,1.4,1.6c0,0.1,0,0.1-0.1,0.2l-0.2,0.2
			c-0.1,0.1-0.1,0.1-0.2-0.1c-0.4-0.6-0.8-1.2-1.3-1.6c-0.1,0,0-0.1,0-0.1L126.3,2.4z"/>
		<path class="st0" d="M135.9,3.2c0.8-0.1,1.3-0.2,1.8-0.3c0.1,0,0.2-0.1,0.3-0.1h0.1h0.1c0.1,0.1,0.2,0.2,0.4,0.3l0.1,0.1
			c0,0.1,0,0.1-0.1,0.2c-0.1,0.1-0.2,0.1-0.3,0.2c-0.7,0.7-1.3,1.4-2,2.1c0.2-0.1,0.4-0.1,0.6-0.1c0.5,0,0.9,0.4,1,1.1
			c0.2,0.9,0.4,1,1.4,1c0.5,0,0.9-0.1,1.4-0.1c0.1,0,0.1,0,0.1,0.1s0,0.3,0,0.5c0,0.1,0,0.1-0.1,0.1c-0.4,0.1-0.9,0.1-1.4,0.1
			c-1.4,0-1.8-0.3-2-1.3c-0.1-0.7-0.3-1-0.7-1c-0.3,0-0.7,0.2-1.1,0.5c-0.5,0.5-1,1.1-1.5,1.6c0,0-0.1,0-0.2,0
			c-0.1-0.1-0.3-0.2-0.4-0.3c0,0,0-0.1,0-0.2c0.7-0.7,1.4-1.4,1.8-1.8c0.6-0.6,1.3-1.4,2.2-2.4c-1,0.2-1.8,0.4-2.6,0.5
			c-0.2,0-0.3,0.1-0.4,0.1c-0.1,0-0.1,0-0.2,0c0,0-0.1,0-0.1-0.1c-0.1-0.2-0.2-0.4-0.2-0.7C134.6,3.4,135,3.3,135.9,3.2z M138.2,1.2
			c0.1,0,0.1,0,0.1,0.1s-0.1,0.3-0.1,0.4l-0.1,0.1c-0.8-0.2-1.7-0.5-2.4-0.8l-0.1-0.1c0-0.1,0.1-0.3,0.2-0.5
			C136.6,0.8,137.4,1,138.2,1.2z"/>
		<path class="st0" d="M147.8,4.5c0.7-0.4,1.4-0.7,2-0.7c1.4,0,2.2,0.8,2.2,2.1c0,1.4-1.1,2.4-3.1,2.4c-1.1,0-1.6-0.5-1.6-1.1
			c0-0.5,0.4-1,1.1-1c0.9,0,1.4,0.5,1.6,1.4c0.8-0.3,1.4-0.8,1.4-1.7c0-1-0.7-1.6-1.6-1.6c-0.9,0-1.9,0.5-2.6,1.1
			c-0.3,0.2-0.5,0.5-0.8,0.8c-0.1,0.1-0.1,0.1-0.2,0c-0.1-0.1-0.3-0.3-0.4-0.4V5.7c0.7-0.7,1.2-1.1,2.1-2.1c0.5-0.6,1.1-1.2,1.8-2.1
			c-0.8,0.1-1.5,0.3-2.4,0.4c-0.1,0-0.2,0-0.3,0.1c-0.1,0-0.1,0-0.2,0c-0.1,0-0.1,0-0.2-0.1c-0.1-0.2-0.2-0.4-0.2-0.7
			c0.3,0,0.6,0,0.8,0c0.7-0.1,1.5-0.2,2.4-0.3c0.1,0,0.2,0,0.3-0.1l0.1-0.1c0,0,0.1,0,0.2,0.1c0.2,0.1,0.3,0.3,0.4,0.4
			c0,0.1,0.1,0.1,0.1,0.2s0,0.1-0.1,0.2c-0.1,0-0.2,0.1-0.4,0.3C149.3,2.9,148.7,3.5,147.8,4.5L147.8,4.5z M148.4,6.8
			c-0.3,0-0.6,0.2-0.6,0.4c0,0.3,0.3,0.6,1,0.6c0.2,0,0.4,0,0.6,0C149.3,7.2,148.9,6.8,148.4,6.8z"/>
	</g>
	<g>
		<g>
			<path class="st0" d="M43.4,17.1H62c0.8,0,1.9,1.1,1.9,2c0,1.7,0,5.8,0,5.8s0,0.3-0.3,0.3s-6.9,0-6.9,0s0-4.9,0-5
				c0-0.2-0.1-0.5-0.4-0.5c-0.4,0-7.1,0-7.2,0c-0.3,0-0.4,0.2-0.4,0.5s0,11.8,0,11.8c0,0.4,0.4,0.7,0.8,0.7c0.4,0,6.4,0,6.5,0
				c0.5,0,0.9-0.1,0.9-0.7c0-0.4,0-2.5,0-2.5h-2.3V27H64v6.1c0,1.1-1,1.8-1.8,1.8c-1.5,0-18.7,0-18.7,0c-1.1,0-2-0.8-2-1.9
				c0-0.3,0-13.9,0-13.9C41.5,18,42.4,17.1,43.4,17.1z"/>
		</g>
		<g>
			<path class="st0" d="M74.4,34.9c-0.1,0-7,0-7,0V17.1h7.2c0,0,0,17.5,0,17.6C74.6,34.9,74.5,34.9,74.4,34.9z"/>
		</g>
		<g>
			<polygon class="st0" points="85.3,29.1 85.3,34.9 78,34.9 78,17.1 85.3,17.1 85.3,26 100.6,17.2 100.6,20.3 94.2,23.9 100.6,35 
				92.4,35 88.1,27.4 			"/>
		</g>
		<g>
			<path class="st0" d="M126.7,17.1c0,0-19.9,0-20.9,0s-1.8,1-1.8,1.8s0,13.3,0,14.1c0,1.1,0.8,2,1.9,2c1,0,20.3,0,20.6,0
				c0.2,0,0.3,0,0.3-0.2s0-2.2,0-2.2s-13.9,0-14.6,0s-0.9-0.3-0.9-0.7c0-0.4,0-4.6,0-4.6s12.4,0,12.8,0c0.2,0,0.3-0.1,0.3-0.3
				c0-0.3,0-2.3,0-2.3h-13c0,0,0-4.3,0-4.7c0-0.3,0.2-0.5,0.4-0.5c0.2,0,14.4,0,14.7,0c0.3,0,0.3-0.1,0.3-0.2S126.7,17.1,126.7,17.1
				z"/>
		</g>
		<g>
			<path class="st0" d="M130.1,17.1h7.2l8.1,13.2V17.1c0,0,4.4,0,5.3,0c1.1,0,1.9,1,1.9,1.9s0,15.3,0,15.6s-0.1,0.4-0.4,0.4
				c-0.2,0-6.8,0-6.8,0l-8.1-13.1c0,0,0,12.7,0,12.9s-0.1,0.3-0.3,0.3s-4.5,0-5,0c-1,0-2-0.9-2-2C130.1,32.6,130.1,17.1,130.1,17.1z
				"/>
		</g>
		<g>
			<path class="st0" d="M15.5,17.2c-8.2,0-15.1,3.8-15.4,8.6c0,0.1,0,0.2,0,0.3c0,0.1,0,0.2,0,0.3C0.4,31.2,7.4,35,15.5,35
				c8.4,0,15.5-3.8,15.5-8.9C30.9,21,23.8,17.2,15.5,17.2z M1.5,28.5c-0.5-0.7-0.8-1.4-0.9-2.1c0-0.1,0-0.2,0-0.3c0-0.1,0-0.2,0-0.3
				c0.1-0.7,0.4-1.5,0.9-2.1c0.7-0.8,1.8-1.4,3-1.4c2.1,0,3.8,1.7,3.8,3.8s-1.7,3.8-3.8,3.8C3.3,29.9,2.2,29.4,1.5,28.5z M12.3,32.6
				c-3.9,0-6.9-0.9-8.9-2.4c3.2,1.5,8.9-0.2,8.9-4.2c0-4.1-5.7-5.7-8.9-4.2c1.9-1.3,4.9-2.3,8.9-2.3c6.8,0,11.3,3.4,11.3,6.6
				C23.6,29.2,19.2,32.6,12.3,32.6z"/>
		</g>
	</g>
</g>
</svg>
