<?xml version="1.0" encoding="utf-8"?>
<!-- Generator: Adobe Illustrator 23.0.3, SVG Export Plug-In . SVG Version: 6.00 Build 0)  -->
<svg version="1.1" id="レイヤー_1" xmlns="http://www.w3.org/2000/svg" xmlns:xlink="http://www.w3.org/1999/xlink" x="0px"
	 y="0px" viewBox="0 0 31.2 17.9" style="enable-background:new 0 0 31.2 17.9;" xml:space="preserve">
<style type="text/css">
	.st0{fill:#005291;}
</style>
<g>
	<path class="st0" d="M15.5,0C7.3,0,0.3,3.8,0,8.6c0,0.1,0,0.2,0,0.3C0,9,0,9.1,0,9.2c0.3,4.8,7.3,8.6,15.4,8.6
		c8.4,0,15.5-3.8,15.5-8.9S23.8,0,15.5,0z M1.5,11.4C1,10.7,0.7,10,0.6,9.3c0-0.1,0-0.2,0-0.3s0-0.2,0-0.3C0.7,8,1,7.2,1.5,6.6
		c0.7-0.8,1.8-1.4,3-1.4c2.1,0,3.8,1.7,3.8,3.8s-1.7,3.8-3.8,3.8C3.3,12.8,2.2,12.2,1.5,11.4z M12.3,15.5c-3.9,0-6.9-0.9-8.9-2.4
		c3.2,1.5,8.9-0.2,8.9-4.2c0-4.1-5.7-5.7-8.9-4.2c1.9-1.3,4.9-2.3,8.9-2.3c6.8,0,11.3,3.4,11.3,6.6C23.6,12,19.2,15.5,12.3,15.5z"/>
</g>
</svg>
