<?xml version="1.0" encoding="utf-8"?>
<!-- Generator: Adobe Illustrator 23.0.1, SVG Export Plug-In . SVG Version: 6.00 Build 0)  -->
<svg version="1.1" id="レイヤー_1" xmlns="http://www.w3.org/2000/svg" xmlns:xlink="http://www.w3.org/1999/xlink" x="0px"
	 y="0px" viewBox="0 0 153 36" style="enable-background:new 0 0 153 36;" xml:space="preserve">
<style type="text/css">
	.st0{fill:#005291;}
</style>
<g>
	<g>
		<path class="st0" d="M8.8,5.5c0,2.5,0,3,0,3c0,0.1,0,0.1-0.1,0.1H8.3c-0.1,0-0.1,0-0.1-0.1V8H3.5v0.5c0,0.1,0,0.1-0.1,0.1H3
			c-0.1,0-0.1,0-0.1-0.1c0-0.1,0-0.5,0-3V3.7c0-1.8,0-2.2,0-2.3c0-0.1,0-0.1,0.1-0.1c0.1,0,0.4,0,1.3,0h0.6c0.2-0.3,0.3-0.6,0.4-1
			c0-0.1,0.1-0.3,0.1-0.4c0.2,0,0.4,0.1,0.6,0.1C6,0.1,6,0.2,6,0.2c0,0,0,0.1-0.1,0.1C5.9,0.4,5.9,0.5,5.8,0.6
			C5.7,0.8,5.7,1.1,5.5,1.4h1.9c0.9,0,1.3,0,1.3,0c0.1,0,0.1,0,0.1,0.1c0,0,0,0.5,0,2V5.5z M8.2,2H3.5v1.4h4.7V2z M8.2,3.9H3.5v1.4
			h4.7V3.9z M8.2,5.8H3.5v1.6h4.7V5.8z"/>
		<path class="st0" d="M19.4,2.3C19.4,2.4,19.4,2.4,19.4,2.3c-0.1,0.1-0.4,0.1-1.3,0.1h-0.7V3H18c0.8,0,1.1,0,1.1,0
			c0.1,0,0.1,0,0.1,0.1c0,0,0,0.2,0,0.8v0.9c0,0.5,0,0.7,0,0.8c0,0.1,0,0.1-0.1,0.1c-0.1,0-0.2,0-1.1,0h-0.5v0.6H18
			c0.8,0,1.1,0,1.2,0c0.1,0,0.1,0,0.1,0.1v0.3c0,0.1,0,0.1-0.1,0.1c-0.1,0-0.3,0-1.2,0h-0.5v0.7c0.6-0.1,1.2-0.2,1.7-0.3
			c0,0.1-0.1,0.2-0.1,0.3c0,0.2,0,0.2-0.2,0.2c-1.1,0.2-2.2,0.4-3.4,0.5c-0.2,0-0.3,0.1-0.4,0.1c0,0-0.1,0-0.1,0c0,0-0.1,0-0.1-0.1
			c0-0.1-0.1-0.4-0.1-0.5c0.3,0,0.6,0,1,0c0.3,0,0.7-0.1,1.2-0.1V6.6h-0.7c-0.8,0-1.1,0-1.2,0c-0.1,0-0.1,0-0.1-0.1V6.2
			c0-0.1,0-0.1,0.1-0.1c0.1,0,0.3,0,1.2,0H17V5.6h-0.5c-0.8,0-1.1,0-1.1,0c-0.1,0-0.1,0-0.1-0.1c0-0.1,0-0.2,0-0.8V3.8
			c0-0.5,0-0.7,0-0.8c0-0.1,0-0.1,0.1-0.1c0.1,0,0.3,0,1.1,0H17V2.4h-0.8c-0.9,0-1.2,0-1.2,0c-0.1,0-0.1,0-0.1-0.1V2
			c0-0.1,0-0.1,0.1-0.1c0,0,0.3,0,1.2,0H17V1.3c-0.5,0.1-0.9,0.1-1.4,0.2c-0.2,0-0.2,0-0.2-0.1c-0.1-0.1-0.1-0.2-0.2-0.3
			c1.4-0.1,2.3-0.2,3.3-0.5c0.2,0,0.3-0.1,0.4-0.2c0.2,0.1,0.3,0.2,0.4,0.3c0.1,0.1,0.1,0.1,0.1,0.1c0,0.1-0.1,0.1-0.2,0.1
			c-0.1,0-0.2,0-0.4,0.1c-0.4,0.1-0.8,0.2-1.2,0.3v0.7h0.7c0.9,0,1.2,0,1.2,0c0.1,0,0.1,0,0.1,0.1V2.3z M17,3.4h-1.1v0.7H17V3.4z
			 M17,4.4h-1.1v0.7H17V4.4z M18.7,3.4h-1.2v0.7h1.2V3.4z M18.7,4.4h-1.2v0.7h1.2V4.4z M21.9,2.4c0.7,0,1,0,1,0c0.1,0,0.1,0,0.1,0.1
			c0,0.3,0,0.6,0,0.8c0,1.5-0.1,3.1-0.3,4.2c-0.1,0.7-0.4,0.9-1,0.9c-0.3,0-0.5,0-0.7,0c-0.2,0-0.2-0.1-0.2-0.2
			c0-0.2-0.1-0.3-0.1-0.5c0.3,0.1,0.6,0.1,0.9,0.1c0.3,0,0.5-0.2,0.5-0.7c0.2-1,0.2-2.6,0.2-4.4h-1.1c0,1-0.1,1.9-0.3,2.7
			c-0.3,1.2-0.8,2.1-1.8,2.9C19.1,8.5,19,8.6,19,8.6c0,0-0.1,0-0.1-0.1c-0.1-0.1-0.2-0.2-0.4-0.3c1.1-0.7,1.6-1.6,1.9-2.9
			c0.2-0.6,0.3-1.5,0.3-2.5h-0.1c-0.7,0-1,0-1,0c-0.1,0-0.1,0-0.1-0.1V2.4c0-0.1,0-0.1,0.1-0.1c0,0,0.3,0,1,0h0.1c0-0.4,0-0.7,0-1.1
			c0-0.6,0-0.8-0.1-1.2c0.2,0,0.4,0,0.6,0.1c0.1,0,0.1,0,0.1,0.1c0,0.1,0,0.1,0,0.2c0,0.1-0.1,0.4-0.1,0.9c0,0.3,0,0.7,0,1H21.9z"/>
		<path class="st0" d="M29.7,4.7c0-0.4,0-1,0-1.4c-0.4,0.5-0.8,1-1.3,1.5c-0.1,0.1-0.1,0.1-0.1,0.1c0,0-0.1,0-0.1-0.1
			c-0.1-0.2-0.2-0.3-0.2-0.4c1.1-1,1.9-2.2,2.4-3.5c0.1-0.2,0.2-0.5,0.2-0.6c0.2,0.1,0.4,0.1,0.6,0.2c0.1,0,0.1,0.1,0.1,0.1
			s0,0.1-0.1,0.1c-0.1,0-0.1,0.1-0.2,0.4c-0.2,0.4-0.4,0.9-0.7,1.3v4.7c0,1,0,1.4,0,1.5c0,0.1,0,0.1-0.1,0.1h-0.5
			c-0.1,0-0.1,0-0.1-0.1c0,0,0-0.5,0-1.5V4.7z M32.8,7c0,0.5,0.1,0.6,0.4,0.7c0.2,0.1,0.6,0.1,1.2,0.1c0.6,0,0.9-0.1,1.2-0.3
			c0.2-0.2,0.3-0.5,0.4-1.4c0.1,0.1,0.3,0.2,0.4,0.2c0.2,0.1,0.2,0.1,0.1,0.2c-0.1,0.8-0.2,1.2-0.5,1.4c-0.3,0.2-0.9,0.3-1.6,0.3
			c-0.8,0-1.2,0-1.6-0.1c-0.3-0.1-0.6-0.4-0.6-1V1.4c0-0.5,0-0.8-0.1-1.1c0.2,0,0.4,0,0.6,0.1c0.1,0,0.1,0,0.1,0.1
			c0,0.1,0,0.1,0,0.2c0,0.1-0.1,0.2-0.1,0.7v2.8c0.8-0.5,1.5-1.1,2.2-1.8c0.1-0.1,0.3-0.3,0.4-0.5c0.2,0.1,0.4,0.3,0.5,0.4
			C36,2.3,36,2.3,36,2.3c0,0.1-0.1,0.1-0.1,0.1c-0.1,0-0.3,0.2-0.5,0.4c-0.7,0.7-1.5,1.3-2.6,1.9V7z"/>
		<path class="st0" d="M43.2,4.4c0.4-0.2,0.7-0.3,1.1-0.5c0,0.1,0,0.2,0,0.4c0,0.2,0,0.2-0.2,0.3c-0.3,0.1-0.6,0.3-0.9,0.4v1.2
			c0,0.5,0,1.1,0,1.4c0,0.4-0.1,0.6-0.2,0.7c-0.2,0.1-0.4,0.2-1,0.2c-0.2,0-0.2,0-0.2-0.2S41.7,8,41.6,7.9c0.2,0,0.5,0,0.7,0
			c0.3,0,0.4-0.1,0.4-0.5V5.2c-0.2,0.1-0.4,0.2-0.7,0.2c-0.2,0.1-0.3,0.1-0.4,0.2c0,0-0.1,0.1-0.1,0.1s-0.1,0-0.1-0.1
			c-0.1-0.2-0.1-0.4-0.2-0.6c0.3,0,0.5-0.1,0.8-0.2l0.6-0.2V2.6h-0.3c-0.7,0-0.9,0-0.9,0c-0.1,0-0.1,0-0.1-0.1V2.1
			c0-0.1,0-0.1,0.1-0.1c0,0,0.2,0,0.9,0h0.3V1.3c0-0.6,0-0.8-0.1-1.1c0.2,0,0.4,0,0.6,0.1c0.1,0,0.1,0,0.1,0.1c0,0.1,0,0.1-0.1,0.2
			c0,0.1,0,0.3,0,0.8v0.8h0c0.7,0,0.9,0,0.9,0c0.1,0,0.1,0,0.1,0.1v0.4c0,0.1,0,0.1-0.1,0.1c0,0-0.2,0-0.9,0h0V4.4z M48.5,3.6
			c0.1,0,0.1,0,0.2,0c0,0,0.1,0,0.1,0c0,0,0.1,0,0.2,0.2c0.1,0.1,0.2,0.2,0.2,0.2s0,0.1-0.1,0.1c-0.1,0-0.1,0.1-0.2,0.3
			c-0.4,0.9-0.9,1.7-1.5,2.3c0.7,0.6,1.5,1,2.5,1.4c-0.1,0.1-0.2,0.2-0.3,0.4c-0.1,0.1-0.1,0.2-0.1,0.2c0,0-0.1,0-0.1,0
			c-0.9-0.4-1.7-0.9-2.4-1.5c-0.7,0.6-1.6,1.1-2.6,1.5c-0.1,0-0.1,0-0.1,0c-0.1,0-0.1,0-0.1-0.2C44,8.4,44,8.3,43.8,8.2
			c1.1-0.3,2-0.8,2.8-1.5C46,6,45.6,5.2,45.2,4.2c-0.3,0-0.5,0-0.5,0c-0.1,0-0.1,0-0.1-0.1V3.7c0-0.1,0-0.1,0.1-0.1c0,0,0.3,0,1.2,0
			h0.8V2.2h-0.8c-0.9,0-1.2,0-1.3,0c-0.1,0-0.1,0-0.1-0.1V1.7c0-0.1,0-0.1,0.1-0.1c0.1,0,0.4,0,1.3,0h0.8V1.3c0-0.6,0-0.9-0.1-1.2
			c0.2,0,0.4,0,0.6,0.1c0.1,0,0.1,0,0.1,0.1c0,0.1,0,0.1-0.1,0.2c0,0.1-0.1,0.4-0.1,0.8v0.4h1.1c0.9,0,1.2,0,1.3,0
			c0.1,0,0.1,0,0.1,0.1v0.4c0,0.1,0,0.1-0.1,0.1c-0.1,0-0.4,0-1.3,0h-1.1v1.5H48.5z M45.8,4.1C46.1,5,46.5,5.7,47,6.3
			c0.6-0.6,1.1-1.3,1.4-2.1H45.8z"/>
		<path class="st0" d="M55.6,5.6c0-0.4,0-0.8,0-1.2c-0.2,0.3-0.5,0.5-0.7,0.8c0,0-0.1,0.1-0.1,0.1c0,0-0.1,0-0.1-0.1
			c-0.1-0.2-0.1-0.2-0.2-0.3c0.8-0.7,1.3-1.4,1.7-2.2c0.1-0.1,0.1-0.3,0.2-0.5c0.2,0.1,0.3,0.2,0.5,0.3c0.1,0,0.1,0.1,0.1,0.1
			s0,0.1-0.1,0.1c-0.1,0-0.1,0.1-0.2,0.3c-0.1,0.3-0.3,0.5-0.5,0.8v3.5c0,0.8,0,1.2,0,1.2c0,0.1,0,0.1-0.1,0.1h-0.4
			c-0.1,0-0.1,0-0.1-0.1c0,0,0-0.4,0-1.2V5.6z M56.9,0.7c-0.1,0-0.2,0.1-0.2,0.2c-0.4,0.6-0.9,1.2-1.7,1.8c-0.1,0-0.1,0.1-0.1,0.1
			c0,0-0.1,0-0.1-0.1c-0.1-0.1-0.2-0.2-0.2-0.3c0.7-0.5,1.3-1.1,1.7-1.7c0.1-0.2,0.2-0.3,0.2-0.4c0.2,0.1,0.4,0.2,0.5,0.3
			c0.1,0,0.1,0.1,0.1,0.1C56.9,0.6,56.9,0.6,56.9,0.7z M57.9,4.2c0,0.1-0.1,0.2-0.1,0.4c-0.1,0.7-0.3,1.6-0.6,2.4
			c0,0.1,0,0.1-0.1,0.1c0,0-0.1,0-0.1,0c-0.1-0.1-0.2-0.1-0.4-0.1C57,6,57.2,5.2,57.2,4.6c0-0.2,0-0.5,0-0.7c0.2,0,0.4,0,0.5,0.1
			c0.1,0,0.1,0,0.1,0.1C57.9,4.1,57.9,4.2,57.9,4.2z M60.4,2.7C60.4,2.8,60.3,2.8,60.4,2.7c-0.1,0.1-0.3,0.1-1.1,0.1H59v4.1
			c0,1.1,0,1.6,0,1.6c0,0.1,0,0.1-0.1,0.1h-0.4c-0.1,0-0.1,0-0.1-0.1c0-0.1,0-0.5,0-1.6V2.8h-0.3c-0.7,0-0.9,0-1,0
			c-0.1,0-0.1,0-0.1-0.1V2.3c0-0.1,0-0.1,0.1-0.1c0.1,0,0.3,0,1,0h0.3V1.4c0-0.6,0-0.9-0.1-1.2c0.2,0,0.4,0,0.6,0.1
			c0.1,0,0.1,0,0.1,0.1c0,0.1,0,0.1,0,0.2C59,0.6,59,0.8,59,1.4v0.8h0.3c0.7,0,0.9,0,1,0c0.1,0,0.1,0,0.1,0.1V2.7z M59.6,0.6
			c0.1,0,0.1,0,0.1,0c0.2,0.3,0.4,0.6,0.6,0.9c0,0.1,0,0.1-0.1,0.1l-0.2,0.1C60,1.8,60,1.8,60,1.7c-0.2-0.4-0.4-0.7-0.6-0.9
			c0-0.1,0-0.1,0-0.1L59.6,0.6z M59.9,3.9c0.1,0,0.1,0,0.1,0c0.3,0.8,0.5,1.6,0.6,2.5c0,0.1,0,0.1-0.1,0.1l-0.3,0.1
			c-0.1,0-0.2,0-0.2,0c-0.1-0.9-0.3-1.7-0.5-2.5c0-0.1,0-0.1,0.1-0.1L59.9,3.9z M63.1,3.3C63.1,3.3,63.1,3.4,63.1,3.3
			c-0.1,0.1-0.3,0.1-0.9,0.1h0v2.8c0,0.7,0,1.1,0,1.5c0,0.3-0.1,0.6-0.3,0.7c-0.2,0.1-0.5,0.2-1.1,0.1c-0.2,0-0.2,0-0.2-0.2
			c0-0.1-0.1-0.3-0.2-0.4c0.3,0,0.6,0.1,0.9,0.1c0.2,0,0.4-0.1,0.4-0.4V3.3h-0.3c-0.6,0-0.8,0-0.8,0c-0.1,0-0.1,0-0.1-0.1V2.9
			c0-0.1,0-0.1,0.1-0.1c0,0,0.2,0,0.8,0h0.9c0.6,0,0.8,0,0.8,0c0.1,0,0.1,0,0.1,0.1V3.3z M62.9,1.3C62.9,1.4,62.9,1.4,62.9,1.3
			c-0.1,0.1-0.3,0.1-0.8,0.1h-0.6c-0.5,0-0.7,0-0.7,0c-0.1,0-0.1,0-0.1-0.1V0.9c0-0.1,0-0.1,0.1-0.1c0,0,0.2,0,0.7,0h0.6
			c0.5,0,0.7,0,0.7,0c0.1,0,0.1,0,0.1,0.1V1.3z"/>
		<path class="st0" d="M73,2.1c-1.4,0.2-2.7,0.4-3.8,0.7c-0.3,0.1-0.5,0.1-0.6,0.2C68.5,3,68.5,3,68.4,3c-0.1,0-0.1,0-0.1-0.1
			c-0.1-0.2-0.2-0.4-0.3-0.7c0.3,0,0.6,0,1.2-0.1c1.4-0.2,3.3-0.5,5.9-0.8c0.1,0,0.1,0,0.2,0.1c0,0.1,0.1,0.4,0.1,0.5
			c0,0.1,0,0.1-0.1,0.1c-0.5,0-0.9,0.1-1.4,0.3c-1.4,0.5-2.4,1.7-2.4,3c0,1.6,1.4,2,2.8,2.2c0.1,0,0.2,0,0.2,0.1
			c0,0.1,0,0.3-0.1,0.5c0,0.1,0,0.1-0.2,0.1c-1.6-0.1-3.3-0.8-3.3-2.7C70.7,4,71.5,2.9,73,2.1L73,2.1z M74.2,3.4
			C74.2,3.4,74.2,3.4,74.2,3.4c0.5,0.3,0.9,0.7,1.2,1.2c0,0,0,0.1,0,0.1L75,4.9c0,0-0.1,0-0.1,0c-0.3-0.5-0.7-0.9-1.1-1.2L74.2,3.4z
			 M75,2.8c0,0,0.1,0,0.1,0c0.4,0.3,0.8,0.7,1.1,1.1c0,0,0,0.1,0,0.1l-0.3,0.2c0,0-0.1,0-0.1,0c-0.2-0.4-0.6-0.9-1.1-1.2L75,2.8z"/>
		<path class="st0" d="M89.3,3.2C89.3,3.2,89.3,3.3,89.3,3.2c-0.1,0.1-0.4,0-1.3,0h-0.3v1.3c0,1.1,0,1.5,0,1.6c0,0.1,0,0.1-0.1,0.1
			h-0.4c-0.1,0-0.1,0-0.1-0.1V5.7h-1.9v0.4c0,0.1,0,0.1-0.1,0.1h-0.4c-0.1,0-0.1,0-0.1-0.1c0-0.1,0-0.5,0-1.6V3.2h-1.8v4.2h4.6
			c1,0,1.3,0,1.3,0c0.1,0,0.1,0,0.1,0.1V8c0,0.1,0,0.1-0.1,0.1c-0.1,0-0.4,0-1.3,0h-4.6v0.5c0,0.1,0,0.1-0.1,0.1h-0.5
			c-0.1,0-0.1,0-0.1-0.1c0-0.1,0-0.4,0-1.3V3.2H82c-0.9,0-1.2,0-1.2,0c-0.1,0-0.1,0-0.1-0.1V2.8c0-0.1,0-0.1,0.1-0.1
			c0,0,0.3,0,1.2,0h0.2V1.8c0-0.6,0-0.9-0.1-1.3c0.2,0,0.5,0,0.6,0.1c0.1,0,0.1,0,0.1,0.1c0,0,0,0.1,0,0.2c0,0.1,0,0.4,0,0.9v0.9
			h1.8V1.6c0-0.5,0-0.8-0.1-1.1c0.2,0,0.4,0,0.6,0.1c0.1,0,0.1,0,0.1,0.1c0,0.1,0,0.1-0.1,0.2c0,0.1,0,0.4,0,0.8v1.1h1.9v-1
			c0-0.5,0-0.9-0.1-1.2c0.2,0,0.4,0,0.6,0.1c0.1,0,0.1,0,0.1,0.1c0,0.1,0,0.1-0.1,0.2c0,0.1,0,0.4,0,0.8v1H88c0.9,0,1.1,0,1.2,0
			c0.1,0,0.1,0,0.1,0.1V3.2z M87.1,3.2h-1.9v1.9h1.9V3.2z"/>
		<path class="st0" d="M99.4,4.1c0.7,0.9,1.7,1.4,3.2,1.8c-0.1,0.1-0.2,0.2-0.3,0.4c-0.1,0.2-0.1,0.2-0.3,0.1
			c-1.3-0.5-2.5-1.2-3.3-2.3h-1.2c-0.7,1.1-1.8,1.9-3.2,2.4c-0.2,0.1-0.2,0.1-0.3-0.1C94.1,6.2,94,6.1,93.9,6c1.3-0.4,2.4-1,3-1.9
			h-0.4c-1,0-1.3,0-1.4,0c-0.1,0-0.1,0-0.1-0.1c0-0.1,0-0.3,0-0.9V1.6c0-0.6,0-0.9,0-0.9c0-0.1,0-0.1,0.1-0.1c0.1,0,0.4,0,1.4,0h3.5
			c1,0,1.3,0,1.4,0c0.1,0,0.1,0,0.1,0.1c0,0,0,0.3,0,0.9v1.5c0,0.6,0,0.9,0,0.9c0,0.1,0,0.1-0.1,0.1c-0.1,0-0.4,0-1.4,0H99.4z
			 M97.5,5.6c0,0.1,0,0.3-0.1,0.4c-0.1,1.2-0.6,2-2.1,2.6c-0.2,0.1-0.2,0.1-0.3-0.1c-0.1-0.1-0.2-0.2-0.3-0.3c1.5-0.4,2-1.1,2.1-2.1
			c0-0.3,0-0.6,0-0.8c0.2,0,0.4,0,0.6,0.1c0.1,0,0.2,0,0.2,0.1C97.5,5.5,97.5,5.6,97.5,5.6z M98,1.1h-2.3v1H98V1.1z M98,2.6h-2.3v1
			H98V2.6z M100.9,1.1h-2.3v1h2.3V1.1z M100.9,2.6h-2.3v1h2.3V2.6z M99.2,6.5c0-0.6,0-0.9-0.1-1.2c0.2,0,0.4,0,0.6,0
			c0.1,0,0.1,0,0.1,0.1c0,0,0,0.1,0,0.2c0,0.1,0,0.3,0,0.9v0.9c0,0.8,0,1.1,0,1.2c0,0.1,0,0.1-0.1,0.1h-0.4c-0.1,0-0.1,0-0.1-0.1
			c0,0,0-0.4,0-1.2V6.5z"/>
		<path class="st0" d="M112,6.6c0,0.1,0,0.1-0.1,0.1c-0.1,0-0.3,0-0.4,0c-0.1,0-0.1,0-0.1-0.1c0-0.4,0-0.9,0-1.4
			c-1,0.5-1.6,1-1.6,1.6c0,0.6,0.5,0.8,1.6,0.8c0.8,0,1.6-0.1,2.3-0.2c0,0,0.1,0,0.1,0.1c0,0.1,0.1,0.3,0.1,0.5c0,0.1,0,0.1-0.1,0.1
			c-0.7,0.1-1.4,0.1-2.3,0.1c-1.3,0-2.2-0.3-2.2-1.4c0-0.8,0.5-1.4,2.1-2.2c0-0.6-0.2-0.9-0.8-0.9c-0.4,0-0.9,0.2-1.6,0.8
			c-0.3,0.3-0.6,0.6-0.9,0.9c-0.1,0.1-0.1,0.1-0.1,0c-0.1-0.1-0.3-0.3-0.3-0.4c0-0.1,0-0.1,0-0.1c0.9-0.7,1.6-1.7,2.2-2.6
			c-0.6,0-1.2,0-1.8,0c-0.1,0-0.1,0-0.1-0.1c0-0.1,0-0.3-0.1-0.5c0.7,0,1.4,0,2.2,0c0.1-0.3,0.2-0.6,0.3-0.9c0-0.2,0.1-0.3,0.1-0.5
			c0.3,0,0.5,0.1,0.7,0.2c0.1,0,0.1,0.1,0,0.2c0,0-0.1,0.1-0.2,0.3c-0.1,0.2-0.2,0.4-0.3,0.7c0.7-0.1,1.3-0.2,2-0.3
			c0.1,0,0.1,0,0.1,0c0,0.1,0,0.3,0.1,0.4c0,0.1,0,0.1-0.1,0.1c-0.7,0.1-1.6,0.2-2.3,0.3c-0.3,0.6-0.6,1-1,1.4l0,0
			c0.4-0.3,0.8-0.4,1.2-0.4c0.7,0,1.1,0.4,1.2,1.1c0.5-0.2,1-0.5,1.5-0.7c0.3-0.1,0.5-0.3,0.7-0.5c0.2,0.2,0.4,0.4,0.5,0.5
			c0.1,0.1,0,0.2-0.1,0.2c-0.1,0-0.3,0.1-0.5,0.2c-0.7,0.3-1.3,0.5-2,0.8V6.6z"/>
		<path class="st0" d="M122,2.7c-0.1,0.1-0.1,0.1-0.2,0.3c-0.3,0.5-0.7,0.9-1.3,1.3c-0.1,0.1-0.1,0.1-0.2,0.1s-0.1,0-0.2-0.1
			c-0.1-0.1-0.2-0.2-0.3-0.2c0.7-0.4,1.1-0.8,1.4-1.3c0.1-0.2,0.2-0.3,0.2-0.5c0.2,0.1,0.4,0.2,0.5,0.2c0,0,0.1,0.1,0.1,0.1
			C122.1,2.7,122,2.7,122,2.7z M125.5,5.2c0.1,0,0.2,0,0.2,0c0,0,0.1,0,0.1,0c0.1,0,0.1,0,0.3,0.2c0.1,0.2,0.2,0.2,0.2,0.2
			c0,0.1,0,0.1-0.1,0.1c-0.1,0-0.1,0.1-0.2,0.2c-0.4,0.5-0.9,0.8-1.3,1.2c1.1,0.6,2.4,0.8,3.8,0.9c-0.1,0.1-0.2,0.3-0.2,0.4
			c-0.1,0.2-0.1,0.2-0.3,0.2c-1.4-0.2-2.7-0.6-3.8-1.2c-1,0.6-2.2,1-3.6,1.2c-0.2,0-0.2,0-0.3-0.2c-0.1-0.1-0.1-0.2-0.2-0.3
			c1.4-0.2,2.5-0.5,3.6-1.1c-0.4-0.3-0.8-0.7-1.2-1.1c-0.5,0.4-1.1,0.8-1.7,1.2c-0.1,0-0.1,0.1-0.1,0.1c0,0-0.1,0-0.1-0.1
			c-0.1-0.1-0.2-0.2-0.3-0.3c1.4-0.6,2.3-1.4,2.9-2.3c0.1-0.1,0.1-0.2,0.2-0.3c0.2,0,0.4,0.1,0.5,0.2c0.1,0,0.1,0.1,0.1,0.1
			c0,0.1,0,0.1-0.1,0.1c-0.1,0-0.1,0.1-0.2,0.2c-0.1,0.1-0.2,0.3-0.3,0.4H125.5z M128.1,1.7C128.1,1.8,128,1.8,128.1,1.7
			c-0.1,0.1-0.4,0.1-1.3,0.1h-1.4v1.1c0,0.5,0,0.8,0,0.9c0,0.3-0.1,0.5-0.3,0.6c-0.2,0.1-0.3,0.1-0.8,0.1c-0.2,0-0.2,0-0.2-0.2
			c0-0.1-0.1-0.3-0.2-0.4c0.2,0,0.4,0,0.5,0c0.3,0,0.4-0.1,0.4-0.4V1.7h-1.3c0,1.6-0.5,2.4-1.7,3c-0.1,0-0.1,0.1-0.2,0.1
			c0,0-0.1,0-0.1-0.1c-0.1-0.1-0.2-0.2-0.3-0.2c1.2-0.5,1.7-1.1,1.8-2.7h-1.6c-0.9,0-1.2,0-1.3,0c-0.1,0-0.1,0-0.1-0.1V1.3
			c0-0.1,0-0.1,0.1-0.1c0.1,0,0.4,0,1.3,0h2.4V1c0-0.5,0-0.7-0.1-1c0.2,0,0.4,0,0.6,0c0.1,0,0.1,0,0.1,0.1c0,0.1,0,0.1-0.1,0.2
			c0,0.1,0,0.2,0,0.7v0.2h2.5c0.9,0,1.2,0,1.3,0c0.1,0,0.1,0,0.1,0.1V1.7z M122.7,5.6L122.7,5.6c0.4,0.5,0.8,0.9,1.3,1.2
			c0.5-0.3,0.9-0.7,1.4-1.2H122.7z M126.3,2.3c0.1-0.1,0.1-0.1,0.2,0c0.6,0.5,1,1.1,1.4,1.6c0,0.1,0,0.1-0.1,0.2l-0.2,0.2
			c-0.1,0.1-0.1,0.1-0.2-0.1c-0.4-0.6-0.8-1.2-1.3-1.6c-0.1,0,0-0.1,0-0.1L126.3,2.3z"/>
		<path class="st0" d="M135.9,3.1c0.8-0.1,1.3-0.2,1.8-0.3c0.1,0,0.2-0.1,0.3-0.1c0,0,0.1,0,0.1,0c0,0,0.1,0,0.1,0
			c0.1,0.1,0.2,0.2,0.4,0.3c0,0,0.1,0.1,0.1,0.1c0,0.1,0,0.1-0.1,0.2c-0.1,0.1-0.2,0.1-0.3,0.2c-0.7,0.7-1.3,1.4-2,2.1
			c0.2-0.1,0.4-0.1,0.6-0.1c0.5,0,0.9,0.4,1,1.1c0.2,0.9,0.4,1,1.4,1c0.5,0,0.9-0.1,1.4-0.1c0.1,0,0.1,0,0.1,0.1c0,0.1,0,0.3,0,0.5
			c0,0.1,0,0.1-0.1,0.1c-0.4,0.1-0.9,0.1-1.4,0.1c-1.4,0-1.8-0.3-2-1.3c-0.1-0.7-0.3-1-0.7-1c-0.3,0-0.7,0.2-1.1,0.5
			c-0.5,0.5-1,1.1-1.5,1.6c0,0-0.1,0-0.2,0c-0.1-0.1-0.3-0.2-0.4-0.3c0,0,0-0.1,0-0.2c0.7-0.7,1.4-1.4,1.8-1.8
			c0.6-0.6,1.3-1.4,2.2-2.4c-1,0.2-1.8,0.4-2.6,0.5c-0.2,0-0.3,0.1-0.4,0.1c-0.1,0-0.1,0-0.2,0c0,0-0.1,0-0.1-0.1
			c-0.1-0.2-0.2-0.4-0.2-0.7C134.6,3.3,135,3.2,135.9,3.1z M138.2,1.1c0.1,0,0.1,0,0.1,0.1c0,0.1-0.1,0.3-0.1,0.4
			c0,0-0.1,0.1-0.1,0.1c-0.8-0.2-1.7-0.5-2.4-0.8c0,0-0.1-0.1-0.1-0.1c0-0.1,0.1-0.3,0.2-0.5C136.6,0.7,137.4,0.9,138.2,1.1z"/>
		<path class="st0" d="M147.8,4.4c0.7-0.4,1.4-0.7,2-0.7c1.4,0,2.2,0.8,2.2,2.1c0,1.4-1.1,2.4-3.1,2.4c-1.1,0-1.6-0.5-1.6-1.1
			c0-0.5,0.4-1,1.1-1c0.9,0,1.4,0.5,1.6,1.4c0.8-0.3,1.4-0.8,1.4-1.7c0-1-0.7-1.6-1.6-1.6c-0.9,0-1.9,0.5-2.6,1.1
			c-0.3,0.2-0.5,0.5-0.8,0.8c-0.1,0.1-0.1,0.1-0.2,0c-0.1-0.1-0.3-0.3-0.4-0.4c0,0,0-0.1,0-0.1c0.7-0.7,1.2-1.1,2.1-2.1
			c0.5-0.6,1.1-1.2,1.8-2.1c-0.8,0.1-1.5,0.3-2.4,0.4c-0.1,0-0.2,0-0.3,0.1c-0.1,0-0.1,0-0.2,0c-0.1,0-0.1,0-0.2-0.1
			c-0.1-0.2-0.2-0.4-0.2-0.7c0.3,0,0.6,0,0.8,0c0.7-0.1,1.5-0.2,2.4-0.3c0.1,0,0.2,0,0.3-0.1c0,0,0.1-0.1,0.1-0.1c0,0,0.1,0,0.2,0.1
			c0.2,0.1,0.3,0.3,0.4,0.4c0,0.1,0.1,0.1,0.1,0.2c0,0.1,0,0.1-0.1,0.2c-0.1,0-0.2,0.1-0.4,0.3C149.3,2.8,148.7,3.4,147.8,4.4
			L147.8,4.4z M148.4,6.7c-0.3,0-0.6,0.2-0.6,0.4c0,0.3,0.3,0.6,1,0.6c0.2,0,0.4,0,0.6,0C149.3,7.1,148.9,6.7,148.4,6.7z"/>
	</g>
	<g>
		<g>
			<path class="st0" d="M43.4,17H62c0.8,0,1.9,1.1,1.9,2c0,1.7,0,5.8,0,5.8s0,0.3-0.3,0.3s-6.9,0-6.9,0s0-4.9,0-5
				c0-0.2-0.1-0.5-0.4-0.5c-0.4,0-7.1,0-7.2,0c-0.3,0-0.4,0.2-0.4,0.5s0,11.8,0,11.8c0,0.4,0.4,0.7,0.8,0.7c0.4,0,6.4,0,6.5,0
				c0.5,0,0.9-0.1,0.9-0.7c0-0.4,0-2.5,0-2.5h-2.3v-2.5H64V33c0,1.1-1,1.8-1.8,1.8c-1.5,0-18.7,0-18.7,0c-1.1,0-2-0.8-2-1.9
				c0-0.3,0-13.9,0-13.9C41.5,17.9,42.4,17,43.4,17z"/>
		</g>
		<g>
			<path class="st0" d="M74.4,34.8c-0.1,0-7,0-7,0V17h7.2c0,0,0,17.5,0,17.6C74.6,34.8,74.5,34.8,74.4,34.8z"/>
		</g>
		<g>
			<polygon class="st0" points="85.3,29 85.3,34.8 78,34.8 78,17 85.3,17 85.3,25.9 100.6,17.1 100.6,20.2 94.2,23.8 100.6,34.9 
				92.4,34.9 88.1,27.3 			"/>
		</g>
		<g>
			<path class="st0" d="M126.7,17c0,0-19.9,0-20.9,0c-1,0-1.8,1-1.8,1.8c0,0.8,0,13.3,0,14.1c0,1.1,0.8,2,1.9,2c1,0,20.3,0,20.6,0
				c0.2,0,0.3,0,0.3-0.2c0-0.2,0-2.2,0-2.2s-13.9,0-14.6,0c-0.7,0-0.9-0.3-0.9-0.7s0-4.6,0-4.6s12.4,0,12.8,0c0.2,0,0.3-0.1,0.3-0.3
				c0-0.3,0-2.3,0-2.3l-13,0c0,0,0-4.3,0-4.7c0-0.3,0.2-0.5,0.4-0.5c0.2,0,14.4,0,14.7,0c0.3,0,0.3-0.1,0.3-0.2S126.7,17,126.7,17z"
				/>
		</g>
		<g>
			<path class="st0" d="M130.1,17h7.2l8.1,13.2V17c0,0,4.4,0,5.3,0c1.1,0,1.9,1,1.9,1.9c0,0.9,0,15.3,0,15.6s-0.1,0.4-0.4,0.4
				c-0.2,0-6.8,0-6.8,0l-8.1-13.1c0,0,0,12.7,0,12.9c0,0.2-0.1,0.3-0.3,0.3c-0.2,0-4.5,0-5,0c-1,0-2-0.9-2-2
				C130.1,32.5,130.1,17,130.1,17z"/>
		</g>
		<g>
			<path class="st0" d="M15.5,17.1c-8.2,0-15.1,3.8-15.4,8.6c0,0.1,0,0.2,0,0.3c0,0.1,0,0.2,0,0.3c0.3,4.8,7.3,8.6,15.4,8.6
				c8.4,0,15.5-3.8,15.5-8.9C30.9,20.9,23.8,17.1,15.5,17.1z M1.5,28.4c-0.5-0.7-0.8-1.4-0.9-2.1c0-0.1,0-0.2,0-0.3
				c0-0.1,0-0.2,0-0.3c0.1-0.7,0.4-1.5,0.9-2.1c0.7-0.8,1.8-1.4,3-1.4c2.1,0,3.8,1.7,3.8,3.8c0,2.1-1.7,3.8-3.8,3.8
				C3.3,29.8,2.2,29.3,1.5,28.4z M12.3,32.5c-3.9,0-6.9-0.9-8.9-2.4c3.2,1.5,8.9-0.2,8.9-4.2c0-4.1-5.7-5.7-8.9-4.2
				c1.9-1.3,4.9-2.3,8.9-2.3c6.8,0,11.3,3.4,11.3,6.6C23.6,29.1,19.2,32.5,12.3,32.5z"/>
		</g>
	</g>
</g>
</svg>
