<svg id="logo-mark" xmlns="http://www.w3.org/2000/svg" width="670.96" height="386.508" viewBox="0 0 670.96 386.508">
  <path id="パス_1" data-name="パス 1" d="M336.566,0C158.512,0,6.514,82.513,0,186.74v13.028c6.514,104.227,158.512,186.74,334.394,186.74,182.4,0,336.566-82.513,336.566-193.254S516.791,0,336.566,0ZM32.571,247.539q-16.285-22.8-19.543-45.6V188.911c2.171-15.2,8.686-32.571,19.543-45.6,15.2-17.371,39.085-30.4,65.142-30.4a82.513,82.513,0,0,1,0,165.026C71.656,277.938,47.771,264.91,32.571,247.539Zm234.51,89.027c-84.684,0-149.826-19.543-193.254-52.113,69.485,32.571,193.254-4.343,193.254-91.2,0-89.027-123.769-123.769-193.254-91.2,41.256-28.228,106.4-49.942,193.254-49.942,147.655,0,245.367,73.827,245.367,143.312C512.449,260.567,416.907,336.566,267.081,336.566Z" fill="#005291"/>
</svg>
