<?xml version="1.0" encoding="utf-8"?>
<!-- Generator: Adobe Illustrator 23.0.1, SVG Export Plug-In . SVG Version: 6.00 Build 0)  -->
<svg version="1.1" id="レイヤー_1" xmlns="http://www.w3.org/2000/svg" xmlns:xlink="http://www.w3.org/1999/xlink" x="0px"
	 y="0px" viewBox="0 0 153 19" style="enable-background:new 0 0 153 19;" xml:space="preserve">
<style type="text/css">
	.st0{fill:#005291;}
</style>
<g>
	<g>
		<path class="st0" d="M43.4,0H62c0.8,0,1.9,1.1,1.9,2c0,1.7,0,5.8,0,5.8s0,0.3-0.3,0.3s-6.9,0-6.9,0s0-4.9,0-5
			c0-0.2-0.1-0.5-0.4-0.5c-0.4,0-7.1,0-7.2,0c-0.3,0-0.4,0.2-0.4,0.5s0,11.8,0,11.8c0,0.4,0.4,0.7,0.8,0.7c0.4,0,6.4,0,6.5,0
			c0.5,0,0.9-0.1,0.9-0.7c0-0.4,0-2.5,0-2.5h-2.3V9.9H64V16c0,1.1-1,1.8-1.8,1.8c-1.5,0-18.7,0-18.7,0c-1.1,0-2-0.8-2-1.9
			c0-0.3,0-13.9,0-13.9C41.5,0.9,42.4,0,43.4,0z"/>
	</g>
	<g>
		<path class="st0" d="M74.4,17.8c-0.1,0-7,0-7,0V0h7.2c0,0,0,17.5,0,17.6S74.5,17.8,74.4,17.8z"/>
	</g>
	<g>
		<polygon class="st0" points="85.3,12 85.3,17.8 78,17.8 78,0 85.3,0 85.3,8.9 100.6,0.1 100.6,3.2 94.2,6.8 100.6,17.9 92.4,17.9 
			88.1,10.3 		"/>
	</g>
	<g>
		<path class="st0" d="M126.7,0c0,0-19.9,0-20.9,0S104,1,104,1.8s0,13.3,0,14.1c0,1.1,0.8,2,1.9,2c1,0,20.3,0,20.6,0
			c0.2,0,0.3,0,0.3-0.2s0-2.2,0-2.2s-13.9,0-14.6,0s-0.9-0.3-0.9-0.7s0-4.6,0-4.6s12.4,0,12.8,0c0.2,0,0.3-0.1,0.3-0.3
			c0-0.3,0-2.3,0-2.3h-13c0,0,0-4.3,0-4.7c0-0.3,0.2-0.5,0.4-0.5c0.2,0,14.4,0,14.7,0c0.3,0,0.3-0.1,0.3-0.2S126.7,0,126.7,0z"/>
	</g>
	<g>
		<path class="st0" d="M130.1,0h7.2l8.1,13.2V0c0,0,4.4,0,5.3,0c1.1,0,1.9,1,1.9,1.9s0,15.3,0,15.6s-0.1,0.4-0.4,0.4
			c-0.2,0-6.8,0-6.8,0l-8.1-13.1c0,0,0,12.7,0,12.9S137.2,18,137,18s-4.5,0-5,0c-1,0-2-0.9-2-2C130.1,15.5,130.1,0,130.1,0z"/>
	</g>
	<g>
		<path class="st0" d="M15.5,0C7.3,0,0.3,3.8,0,8.6c0,0.1,0,0.2,0,0.3C0,9,0,9.1,0,9.2c0.3,4.8,7.3,8.6,15.4,8.6
			c8.4,0,15.5-3.8,15.5-8.9S23.8,0,15.5,0z M1.5,11.4C1,10.7,0.7,10,0.6,9.3c0-0.1,0-0.2,0-0.3c0-0.1,0-0.2,0-0.3
			C0.7,8,1,7.2,1.5,6.6c0.7-0.8,1.8-1.4,3-1.4c2.1,0,3.8,1.7,3.8,3.8s-1.7,3.8-3.8,3.8C3.3,12.8,2.2,12.2,1.5,11.4z M12.3,15.5
			c-3.9,0-6.9-0.9-8.9-2.4c3.2,1.5,8.9-0.2,8.9-4.2c0-4.1-5.7-5.7-8.9-4.2c1.9-1.3,4.9-2.3,8.9-2.3c6.8,0,11.3,3.4,11.3,6.6
			C23.6,12,19.2,15.5,12.3,15.5z"/>
	</g>
</g>
</svg>
